ffmpeg version 3.4.8-0ubuntu0.2 Copyright (c) 2000-2020 the FFmpeg developers
  built with gcc 7 (Ubuntu 7.5.0-3ubuntu1~18.04)
  configuration: --prefix=/usr --extra-version=0ubuntu0.2 --toolchain=hardened --libdir=/usr/lib/x86_64-linux-gnu --incdir=/usr/include/x86_64-linux-gnu --enable-gpl --disable-stripping --enable-avresample --enable-avisynth --enable-gnutls --enable-ladspa --enable-libass --enable-libbluray --enable-libbs2b --enable-libcaca --enable-libcdio --enable-libflite --enable-libfontconfig --enable-libfreetype --enable-libfribidi --enable-libgme --enable-libgsm --enable-libmp3lame --enable-libmysofa --enable-libopenjpeg --enable-libopenmpt --enable-libopus --enable-libpulse --enable-librubberband --enable-librsvg --enable-libshine --enable-libsnappy --enable-libsoxr --enable-libspeex --enable-libssh --enable-libtheora --enable-libtwolame --enable-libvorbis --enable-libvpx --enable-libwavpack --enable-libwebp --enable-libx265 --enable-libxml2 --enable-libxvid --enable-libzmq --enable-libzvbi --enable-omx --enable-openal --enable-opengl --enable-sdl2 --enable-libdc1394 --enable-libdrm --enable-libiec61883 --enable-chromaprint --enable-frei0r --enable-libopencv --enable-libx264 --enable-shared
  libavutil      55. 78.100 / 55. 78.100
  libavcodec     57.107.100 / 57.107.100
  libavformat    57. 83.100 / 57. 83.100
  libavdevice    57. 10.100 / 57. 10.100
  libavfilter     6.107.100 /  6.107.100
  libavresample   3.  7.  0 /  3.  7.  0
  libswscale      4.  8.100 /  4.  8.100
  libswresample   2.  9.100 /  2.  9.100
  libpostproc    54.  7.100 / 54.  7.100
[rawvideo @ 0x5651f6d79a20] Estimating duration from bitrate, this may be inaccurate
Input #0, rawvideo, from '../../SVC-Encoder-20220109T061506Z-001/SVC-Encoder/Dataset/RollerCoaster/ERP_8x8/tile_yuv/Tile_21_480x240.yuv':
  Duration: 00:00:10.00, start: 0.000000, bitrate: 41472 kb/s
    Stream #0:0: Video: rawvideo (I420 / 0x30323449), yuv420p, 480x240, 41472 kb/s, 30 tbr, 30 tbn, 30 tbc
Stream mapping:
  Stream #0:0 -> #0:0 (rawvideo (native) -> h264 (libx264))
Press [q] to stop, [?] for help
[libx264 @ 0x5651f6d86c60] using cpu capabilities: MMX2 SSE2Fast LZCNT SSSE3 SSE4.2 AVX
[libx264 @ 0x5651f6d86c60] profile High, level 2.1
Output #0, rawvideo, to 'RollerCoaster_Tile_21_480x240_x264_QP_20.h264':
  Metadata:
    encoder         : Lavf57.83.100
    Stream #0:0: Video: h264 (libx264), yuv420p, 480x240, q=-1--1, 30 fps, 30 tbn, 30 tbc
    Metadata:
      encoder         : Lavc57.107.100 libx264
    Side data:
      cpb: bitrate max/min/avg: 0/0/0 buffer size: 0 vbv_delay: -1
frame=  300 fps=0.0 q=26.0 LPSNR=Y:inf U:inf V:inf *:inf size=      26kB time=00:00:09.93 bitrate=  21.7kbits/s speed=26.4x    
video:26kB audio:0kB subtitle:0kB other streams:0kB global headers:0kB muxing overhead: 0.000000%
[libx264 @ 0x5651f6d86c60] frame I:2     Avg QP:18.97  size:  1414  PSNR Mean Y:55.78 U:59.77 V:58.82 Avg:56.66 Global:56.66
[libx264 @ 0x5651f6d86c60] frame P:76    Avg QP:20.04  size:   241  PSNR Mean Y:55.26 U:57.99 V:57.88 Avg:55.97 Global:55.92
[libx264 @ 0x5651f6d86c60] frame B:222   Avg QP:25.50  size:    26  PSNR Mean Y:55.28 U:57.70 V:57.55 Avg:55.92 Global:55.88
[libx264 @ 0x5651f6d86c60] consecutive B-frames:  1.3%  0.0%  0.0% 98.7%
[libx264 @ 0x5651f6d86c60] mb I  I16..4: 76.4% 23.3%  0.2%
[libx264 @ 0x5651f6d86c60] mb P  I16..4:  6.8%  1.6%  0.0%  P16..4: 10.9%  0.8%  0.1%  0.0%  0.0%    skip:79.7%
[libx264 @ 0x5651f6d86c60] mb B  I16..4:  0.0%  0.0%  0.0%  B16..8:  2.3%  0.0%  0.0%  direct: 0.0%  skip:97.7%  L0:24.0% L1:75.8% BI: 0.2%
[libx264 @ 0x5651f6d86c60] 8x8 transform intra:20.1% inter:98.0%
[libx264 @ 0x5651f6d86c60] coded y,uvDC,uvAC intra: 4.5% 20.3% 0.1% inter: 0.2% 1.0% 0.0%
[libx264 @ 0x5651f6d86c60] i16 v,h,dc,p: 41% 35% 14% 10%
[libx264 @ 0x5651f6d86c60] i8 v,h,dc,ddl,ddr,vr,hd,vl,hu: 13% 14% 68%  2%  0%  0%  0%  1%  1%
[libx264 @ 0x5651f6d86c60] i4 v,h,dc,ddl,ddr,vr,hd,vl,hu: 12% 15% 48%  6%  5%  4%  3%  2%  5%
[libx264 @ 0x5651f6d86c60] i8c dc,h,v,p: 69% 18% 13%  1%
[libx264 @ 0x5651f6d86c60] Weighted P-Frames: Y:0.0% UV:0.0%
[libx264 @ 0x5651f6d86c60] ref P L0: 82.9%  1.9% 10.9%  4.2%
[libx264 @ 0x5651f6d86c60] ref B L0: 94.2%  5.1%  0.7%
[libx264 @ 0x5651f6d86c60] ref B L1: 95.1%  4.9%
[libx264 @ 0x5651f6d86c60] PSNR Mean Y:55.282 U:57.789 V:57.643 Avg:55.941 Global:55.897 kb/s:21.55
